<svg width="265" height="265" viewBox="0 0 265 265" fill="none" xmlns="http://www.w3.org/2000/svg">
<g clip-path="url(#clip0_71_81)">
<path d="M246.071 151.429H151.429V246.071C151.429 251.091 149.435 255.907 145.885 259.456C142.334 263.006 137.52 265 132.5 265C127.48 265 122.665 263.006 119.116 259.456C115.566 255.907 113.571 251.091 113.571 246.071V151.429H18.9286C13.9084 151.429 9.09385 149.435 5.54405 145.885C1.99426 142.334 0 137.52 0 132.5C0 127.48 1.99426 122.665 5.54405 119.116C9.09385 115.566 13.9084 113.571 18.9286 113.571H113.571V18.9286C113.571 13.9084 115.566 9.09385 119.116 5.54405C122.665 1.99424 127.48 0 132.5 0C137.52 0 142.334 1.99424 145.885 5.54405C149.435 9.09385 151.429 13.9084 151.429 18.9286V113.571H246.071C251.091 113.571 255.907 115.566 259.456 119.116C263.006 122.665 265 127.48 265 132.5C265 137.52 263.006 142.334 259.456 145.885C255.907 149.435 251.091 151.429 246.071 151.429Z" fill="black"/>
</g>
<defs>
<clipPath id="clip0_71_81">
<rect width="265" height="265" fill="white"/>
</clipPath>
</defs>
</svg>
