<svg width="301" height="301" viewBox="0 0 301 301" fill="none" xmlns="http://www.w3.org/2000/svg">
<path d="M251.46 137.958H49.5396C42.9593 137.958 37.625 143.292 37.625 149.873V151.127C37.625 157.708 42.9593 163.042 49.5396 163.042H251.46C258.041 163.042 263.375 157.708 263.375 151.127V149.873C263.375 143.292 258.041 137.958 251.46 137.958Z" fill="#121212"/>
<path d="M251.46 200.667H49.5396C42.9593 200.667 37.625 206.001 37.625 212.581V213.835C37.625 220.416 42.9593 225.75 49.5396 225.75H251.46C258.041 225.75 263.375 220.416 263.375 213.835V212.581C263.375 206.001 258.041 200.667 251.46 200.667Z" fill="#121212"/>
<path d="M251.46 75.25H49.5396C42.9593 75.25 37.625 80.5843 37.625 87.1646V88.4188C37.625 94.999 42.9593 100.333 49.5396 100.333H251.46C258.041 100.333 263.375 94.999 263.375 88.4188V87.1646C263.375 80.5843 258.041 75.25 251.46 75.25Z" fill="#121212"/>
</svg>
