<svg width="119" height="50" viewBox="0 0 119 50" fill="none" xmlns="http://www.w3.org/2000/svg">
<path d="M25.536 34.282C25.536 41.716 20.16 46.336 13.272 46.336C6.384 46.336 1.176 41.716 1.176 34.282C1.176 26.848 6.51 22.228 13.356 22.228C20.244 22.228 25.536 26.848 25.536 34.282ZM8.484 34.282C8.484 38.23 10.668 40.12 13.272 40.12C15.834 40.12 18.228 38.23 18.228 34.282C18.228 30.292 15.876 28.444 13.356 28.444C10.752 28.444 8.484 30.292 8.484 34.282ZM27.1202 22.564H34.8062L39.8882 39.28L44.9702 22.564H52.6142L44.2982 46H35.4362L27.1202 22.564ZM55.6372 46V22.564H62.8192V46H55.6372ZM59.2492 20.128C56.6872 20.128 54.9652 18.406 54.9652 16.264C54.9652 14.08 56.6872 12.358 59.2492 12.358C61.7692 12.358 63.4912 14.08 63.4912 16.264C63.4912 18.406 61.7692 20.128 59.2492 20.128ZM66.5959 34.24C66.5959 26.848 71.1739 22.228 76.9279 22.228C80.0359 22.228 82.7239 23.656 84.1519 25.798V14.92H91.3339V46H84.1519V42.64C82.8499 44.782 80.3719 46.336 76.9279 46.336C71.1739 46.336 66.5959 41.632 66.5959 34.24ZM84.1519 34.282C84.1519 30.544 81.7579 28.486 79.0279 28.486C76.3399 28.486 73.9039 30.502 73.9039 34.24C73.9039 37.978 76.3399 40.078 79.0279 40.078C81.7579 40.078 84.1519 38.02 84.1519 34.282ZM104.132 42.472C104.132 44.614 102.41 46.336 99.8898 46.336C97.3278 46.336 95.6058 44.614 95.6058 42.472C95.6058 40.246 97.3278 38.524 99.8898 38.524C102.41 38.524 104.132 40.246 104.132 42.472Z" fill="black"/>
<path d="M31.536 34.282C31.536 41.716 26.16 46.336 19.272 46.336C12.384 46.336 7.176 41.716 7.176 34.282C7.176 26.848 12.51 22.228 19.356 22.228C26.244 22.228 31.536 26.848 31.536 34.282ZM14.484 34.282C14.484 38.23 16.668 40.12 19.272 40.12C21.834 40.12 24.228 38.23 24.228 34.282C24.228 30.292 21.876 28.444 19.356 28.444C16.752 28.444 14.484 30.292 14.484 34.282ZM33.1202 22.564H40.8062L45.8882 39.28L50.9702 22.564H58.6142L50.2982 46H41.4362L33.1202 22.564ZM61.6372 46V22.564H68.8192V46H61.6372ZM65.2492 20.128C62.6872 20.128 60.9652 18.406 60.9652 16.264C60.9652 14.08 62.6872 12.358 65.2492 12.358C67.7692 12.358 69.4912 14.08 69.4912 16.264C69.4912 18.406 67.7692 20.128 65.2492 20.128ZM72.5959 34.24C72.5959 26.848 77.1739 22.228 82.9279 22.228C86.0359 22.228 88.7239 23.656 90.1519 25.798V14.92H97.3339V46H90.1519V42.64C88.8499 44.782 86.3719 46.336 82.9279 46.336C77.1739 46.336 72.5959 41.632 72.5959 34.24ZM90.1519 34.282C90.1519 30.544 87.7579 28.486 85.0279 28.486C82.3399 28.486 79.9039 30.502 79.9039 34.24C79.9039 37.978 82.3399 40.078 85.0279 40.078C87.7579 40.078 90.1519 38.02 90.1519 34.282ZM110.132 42.472C110.132 44.614 108.41 46.336 105.89 46.336C103.328 46.336 101.606 44.614 101.606 42.472C101.606 40.246 103.328 38.524 105.89 38.524C108.41 38.524 110.132 40.246 110.132 42.472Z" fill="#23B582"/>
</svg>
