<svg width="28" height="26" viewBox="0 0 28 26" fill="none" xmlns="http://www.w3.org/2000/svg">
<path d="M24.0127 12.7096C24.0127 20.319 18.7522 25.048 12.0122 25.048C5.27215 25.048 0.176025 20.319 0.176025 12.7096C0.176025 5.10021 5.39544 0.371197 12.0944 0.371197C18.8344 0.371197 24.0127 5.10021 24.0127 12.7096ZM7.32704 12.7096C7.32704 16.7508 9.46412 18.6854 12.0122 18.6854C14.5191 18.6854 16.8617 16.7508 16.8617 12.7096C16.8617 8.62547 14.5602 6.73387 12.0944 6.73387C9.54632 6.73387 7.32704 8.62547 7.32704 12.7096Z" fill="black"/>
<path d="M28 12.5664C28 20.1758 22.7395 24.9049 15.9995 24.9049C9.25942 24.9049 4.16329 20.1758 4.16329 12.5664C4.16329 4.95704 9.38271 0.228027 16.0816 0.228027C22.8217 0.228027 28 4.95704 28 12.5664ZM11.3143 12.5664C11.3143 16.6076 13.4514 18.5422 15.9995 18.5422C18.5064 18.5422 20.849 16.6076 20.849 12.5664C20.849 8.4823 18.5475 6.5907 16.0816 6.5907C13.5336 6.5907 11.3143 8.4823 11.3143 12.5664Z" fill="white"/>
<path d="M26.0329 12.5664C26.0329 20.1758 20.7724 24.9049 14.0324 24.9049C7.29233 24.9049 2.1962 20.1758 2.1962 12.5664C2.1962 4.95704 7.41562 0.228027 14.1146 0.228027C20.8546 0.228027 26.0329 4.95704 26.0329 12.5664ZM9.34721 12.5664C9.34721 16.6076 11.4843 18.5422 14.0324 18.5422C16.5393 18.5422 18.8819 16.6076 18.8819 12.5664C18.8819 8.4823 16.5804 6.5907 14.1146 6.5907C11.5665 6.5907 9.34721 8.4823 9.34721 12.5664Z" fill="#23B582"/>
</svg>
