<svg width="262" height="262" viewBox="0 0 262 262" fill="none" xmlns="http://www.w3.org/2000/svg">
<g clip-path="url(#clip0_71_40)">
<path fill-rule="evenodd" clip-rule="evenodd" d="M65.5 0C72.7349 0 78.6 5.86513 78.6 13.1V26.2H183.4V13.1C183.4 5.86513 189.265 0 196.5 0C203.735 0 209.6 5.86513 209.6 13.1V26.2H222.7C244.405 26.2 262 43.7953 262 65.5V157.2C262 164.435 256.135 170.3 248.9 170.3C241.665 170.3 235.8 164.435 235.8 157.2V104.8H26.2V222.7C26.2 229.935 32.0651 235.8 39.3 235.8H104.8C112.035 235.8 117.9 241.665 117.9 248.9C117.9 256.135 112.035 262 104.8 262H39.3C17.5953 262 0 244.405 0 222.7V65.5C0 43.7953 17.5953 26.2 39.3 26.2H52.4V13.1C52.4 5.86513 58.2651 0 65.5 0ZM39.3 52.4C32.0651 52.4 26.2 58.2651 26.2 65.5V78.6H235.8V65.5C235.8 58.2651 229.935 52.4 222.7 52.4H39.3Z" fill="white"/>
<path d="M192.663 205.763C197.779 200.647 197.779 192.353 192.663 187.237C187.547 182.121 179.253 182.121 174.137 187.237L147.937 213.437C142.821 218.553 142.821 226.847 147.937 231.963L174.137 258.163C179.253 263.279 187.547 263.279 192.663 258.163C197.779 253.047 197.779 244.753 192.663 239.637L175.726 222.7L192.663 205.763Z" fill="white"/>
<path d="M258.163 187.237C263.279 192.353 263.279 200.647 258.163 205.763L241.226 222.7L258.163 239.637C263.279 244.753 263.279 253.047 258.163 258.163C253.047 263.279 244.753 263.279 239.637 258.163L213.437 231.963C208.321 226.847 208.321 218.553 213.437 213.437L239.637 187.237C244.753 182.121 253.047 182.121 258.163 187.237Z" fill="white"/>
</g>
<defs>
<clipPath id="clip0_71_40">
<rect width="262" height="262" fill="white"/>
</clipPath>
</defs>
</svg>
