<svg width="234" height="234" viewBox="0 0 234 234" fill="none" xmlns="http://www.w3.org/2000/svg">
<g clip-path="url(#clip0_71_64)">
<path fill-rule="evenodd" clip-rule="evenodd" d="M58.5 0C64.9617 0 70.2 5.23832 70.2 11.7V23.4H163.8V11.7C163.8 5.23832 169.038 0 175.5 0C181.962 0 187.2 5.23832 187.2 11.7V23.4H198.9C218.286 23.4 234 39.1149 234 58.5V140.4C234 146.862 228.762 152.1 222.3 152.1C215.838 152.1 210.6 146.862 210.6 140.4V93.6H23.4V198.9C23.4 205.362 28.6383 210.6 35.1 210.6H93.6C100.062 210.6 105.3 215.838 105.3 222.3C105.3 228.762 100.062 234 93.6 234H35.1C15.7149 234 0 218.286 0 198.9V58.5C0 39.1149 15.7149 23.4 35.1 23.4H46.8V11.7C46.8 5.23832 52.0383 0 58.5 0ZM35.1 46.8C28.6383 46.8 23.4 52.0383 23.4 58.5V70.2H210.6V58.5C210.6 52.0383 205.362 46.8 198.9 46.8H35.1Z" fill="black"/>
<path d="M190.627 183.773C186.058 179.204 186.058 171.796 190.627 167.227C195.196 162.658 202.604 162.658 207.173 167.227L230.573 190.627C235.142 195.196 235.142 202.604 230.573 207.173L207.173 230.573C202.604 235.142 195.196 235.142 190.627 230.573C186.058 226.004 186.058 218.596 190.627 214.027L205.754 198.9L190.627 183.773Z" fill="black"/>
<path d="M132.127 167.227C127.558 171.796 127.558 179.204 132.127 183.773L147.254 198.9L132.127 214.027C127.558 218.596 127.558 226.004 132.127 230.573C136.696 235.142 144.104 235.142 148.673 230.573L172.073 207.173C176.642 202.604 176.642 195.196 172.073 190.627L148.673 167.227C144.104 162.658 136.696 162.658 132.127 167.227Z" fill="black"/>
</g>
<defs>
<clipPath id="clip0_71_64">
<rect width="234" height="234" fill="white"/>
</clipPath>
</defs>
</svg>
