<svg width="505" height="368" viewBox="0 0 505 368" fill="none" xmlns="http://www.w3.org/2000/svg">
<path fill-rule="evenodd" clip-rule="evenodd" d="M351.131 264.856C352.988 306.911 319.047 342.473 275.331 344.261C272.11 344.396 115.123 344.079 115.123 344.079C71.616 347.383 33.5388 316.119 30.1071 274.222C29.8486 271.1 29.9191 102.657 29.9191 102.657C27.9918 60.5576 61.8851 24.9055 105.627 23.0505C108.894 22.8921 265.669 23.1862 265.669 23.1862C309.388 19.9286 347.582 51.4184 350.968 93.518C351.202 96.5491 351.131 264.856 351.131 264.856Z" stroke="white" stroke-width="20" stroke-linecap="round" stroke-linejoin="round"/>
<path d="M351.205 137.265L426.794 75.402C445.525 60.0684 473.621 73.4279 473.598 97.5991L473.323 266.291C473.3 290.462 445.18 303.707 426.495 288.373L351.205 226.512" stroke="white" stroke-width="20" stroke-linecap="round" stroke-linejoin="round"/>
</svg>
