<svg width="544" height="427" viewBox="0 0 544 427" fill="none" xmlns="http://www.w3.org/2000/svg">
<path fill-rule="evenodd" clip-rule="evenodd" d="M378.248 307.928C380.249 356.823 343.687 398.167 296.594 400.246C293.125 400.403 124.014 400.035 124.014 400.035C77.1469 403.875 36.1291 367.527 32.4324 318.817C32.1539 315.187 32.2298 119.352 32.2298 119.352C30.1537 70.4056 66.6645 28.9557 113.785 26.799C117.304 26.6148 286.186 26.9568 286.186 26.9568C333.282 23.1694 374.425 59.7802 378.073 108.726C378.325 112.25 378.248 307.928 378.248 307.928Z" stroke="black" stroke-width="23" stroke-linecap="round" stroke-linejoin="round"/>
<path d="M378.327 159.587L459.754 87.6642C479.932 69.8369 510.198 85.369 510.173 113.471L509.876 309.596C509.852 337.698 479.561 353.097 459.433 335.27L378.327 263.348" stroke="black" stroke-width="23" stroke-linecap="round" stroke-linejoin="round"/>
</svg>
